<?xml version="1.0" encoding="UTF-8"?>
<svg version="1.1" xmlns="http://www.w3.org/2000/svg" width="3857" height="2263">
<path d="M0 0 C5.47968928 0.00754505 10.95930621 0.00480724 16.43899286 -0.00360405 C73.44209123 -0.0887794 130.36394444 1.0546822 187.28591669 4.35088813 C188.49214685 4.42021553 189.69837701 4.48954292 190.94115961 4.56097114 C281.64953916 9.87333408 372.16628496 19.56094733 1008.48122919 177.25713813 C1009.5817663 177.75858345 1010.6823034 178.26002876 1011.81619012 178.77666938 C1026.82653377 185.62488982 1041.70383321 192.73611963 1056.54372919 199.94463813 C1057.75074487 200.52945961 1057.75074487 200.52945961 1058.98214471 201.12609565 C1070.21717887 206.57529277 1081.31358723 212.24980019 1092.33624017 218.11642158 C1094.29321872 219.15715317 1096.25255888 220.19320288 1098.21340692 221.22662055 C1112.72816896 228.8842114 1127.035407 236.79007906 1141.16872919 245.13604438 C1145.48616595 247.68470027 1149.84160055 250.14832109 1154.23122919 252.56963813 C1172.2596082 262.58272014 1189.75981519 273.67088157 1207.13552606 284.76495063 C1209.63545701 286.35524809 1212.14361361 287.93197306 1214.65310419 289.50713813 C1228.82592159 298.42583019 1242.69516823 307.75324246 1256.48122919 317.25713813 C1257.48927606 317.95162055 1258.49732294 318.64610298 1259.53591669 319.36163032 C1272.30041222 328.16830337 1284.96269295 337.10421408 1297.48122919 346.25713813 C1298.25418329 346.82142524 1299.02713739 347.38571235 1299.82351434 347.96709907 C1311.15742728 356.24984042 1322.37119814 364.67671342 1333.48122919 373.25713813 C1334.21728387 373.82432563 1334.95333856 374.39151313 1335.71169794 374.97588813 C1344.47327483 381.73180285 1353.15952847 388.56603323 1361.72146356 395.57354438 C1365.94950848 399.03017133 1370.22831157 402.41057468 1374.54372919 405.75713813 C1380.82886315 410.64855369 1386.83831187 415.82409894 1392.82888544 421.06963813 C1396.18083562 424.0044685 1399.57217812 426.88900661 1402.98122919 429.75713813 C1413.45385396 438.58978344 1423.79451969 447.54792856 1433.85622919 456.84698188 C1436.01737347 458.8312468 1438.19962627 460.77603873 1440.41872919 462.69463813 C1445.07664012 466.73535176 1449.58087114 470.94036193 1454.10232294 475.13213813 C1456.29385282 477.16303561 1458.49359565 479.18417535 1460.70388544 481.19463813 C1465.75877679 485.79401988 1470.72300889 490.44415877 1475.51334894 495.32169807 C1477.27716051 497.0564335 1479.08278737 498.65947395 1480.97121942 500.25542915 C1486.70721341 505.2442636 1492.02484526 510.65660086 1497.39138544 516.03448188 C1498.52888952 517.17131059 1499.66654186 518.30799097 1500.80433404 519.44453132 C1503.17685605 521.81558734 1505.54758159 524.18842086 1507.9170202 526.56255805 C1510.93488831 529.58612275 1513.95722494 532.60517446 1516.98093259 535.62289798 C1519.32750651 537.96583647 1521.67166653 540.31117853 1524.01513231 542.65722549 C1525.12782875 543.77058297 1526.24125169 544.88321494 1527.3554529 545.99506652 C1532.77628354 551.40696881 1538.14438441 556.82068836 1543.10767877 562.66340339 C1545.11059934 564.98739825 1547.2841607 567.11788723 1549.48122919 569.25713813 C1553.06006435 572.74179343 1556.36118007 576.38088288 1559.62966669 580.15166938 C1562.6620167 583.59984798 1565.82373906 586.92387021 1568.98122919 590.25713813 C1573.38986289 594.91120093 1577.71133759 599.61631428 1581.91384637 604.45782173 C1583.86091872 606.69301226 1585.85617387 608.88183817 1587.85622919 611.06963813 C1590.9665177 614.51092018 1593.9460123 618.02035111 1596.85622919 621.63213813 C1600.10075865 625.64540629 1603.46874384 629.4812468 1606.98122919 633.25713813 C1611.23648203 637.83649572 1615.25445142 642.54999244 1619.17654169 647.42120063 C1621.68917053 650.51301172 1624.26762984 653.54157678 1626.85622919 656.56963813 C1631.16024895 661.61829539 1635.28405867 666.78502893 1639.35354364 672.0237397 C1642.48846881 676.04170315 1645.72703162 679.95083853 1649.04372919 683.81963813 C1653.46177292 688.98450282 1657.65823995 694.28992464 1661.77029169 699.70245063 C1664.28580648 703.0133258 1666.84373729 706.2898252 1669.40578973 709.56475532 C1700.03384352 748.73948248 1728.93810817 789.2998999 1756.48122919 830.69463813 C1756.96090143 831.41492195 1757.44057367 832.13520576 1757.93478143 832.87731636 C1764.86483058 843.28550153 1771.7638118 853.71003928 1778.48122919 864.25713813 C1778.91951044 864.94146919 1779.35779169 865.62580024 1779.80935419 866.3308686 C1788.55550254 879.99365443 1796.97510786 893.85325504 1805.35720575 907.74102485 C1807.36935028 911.07411835 1809.39001529 914.40200253 1811.41091669 917.72979438 C1819.5560154 931.17902 1827.35861054 944.79046703 1834.97536981 958.54522407 C1836.64911034 961.55947662 1838.3418776 964.56245392 1840.0407995 967.56255805 C1844.81492523 975.9960446 1849.47478818 984.49125722 1854.09158075 993.0117768 C1856.18786068 996.87942533 1858.29535167 1000.7404914 1860.41384637 1004.59600532 C1873.34806663 1028.29760767 1885.26801181 1052.52661133 1897.32260752 1076.68275702 C1899.4868935 1081.01887573 1901.65528227 1085.35292478 1903.82595575 1089.68584907 C1929.16663905 1140.2712924 1929.16663905 1140.2712924 1939.33065546 1162.73046577 C1941.01401632 1166.42714445 1942.75471007 1170.09553543 1944.50466669 1173.76104438 C1971.93019831 1231.43829697 1995.71604646 1291.29108896 2011.48122919 1353.25713813 C2011.66236261 1353.96660591 2011.84349603 1354.67607368 2012.03011835 1355.40704048 C2019.96944831 1386.60833276 2025.80209667 1418.21157523 2029.26119745 1450.23174751 C2029.48130304 1452.25781799 2029.70998774 1454.28281023 2029.93874872 1456.30791938 C2034.98965726 1502.03732682 2035.14843232 1550.59578999 2029.48122919 1596.25713813 C2029.3078497 1597.69870238 2029.13451074 1599.14027149 2028.96120965 1600.58184516 C2019.89706402 1674.78145835 1997.65616218 1746.72624967 1931.48122919 1880.25713813 C1930.5499621 1881.85428657 1930.5499621 1881.85428657 1929.59988153 1883.48370063 C1916.08373478 1906.65994636 1901.78006183 1929.21420856 1886.48122919 1951.25713813 C1885.95287469 1952.0186518 1885.4245202 1952.78016548 1884.88015497 1953.56475532 C1873.83705855 1969.43588072 1862.37572511 1985.01370646 1850.48122919 2000.25713813 C1849.84652704 2001.0731147 1849.84652704 2001.0731147 1849.19900262 2001.90557563 C1838.71388905 2015.37867494 1827.97210592 2028.64134922 1816.88015497 2041.6199311 C1815.39977085 2043.3524714 1813.92291561 2045.08798474 1812.44607294 2046.82354438 C1807.20493184 2052.97186972 1801.9115013 2059.05929814 1796.48122919 2065.04229438 C1794.6851939 2067.03126315 1792.92169615 2069.04277008 1791.16872919 2071.06963813 C1787.08639308 2075.75397772 1782.85599561 2080.30091848 1778.62966669 2084.85479438 C1776.64245574 2086.996782 1774.6677719 2089.14881031 1772.70779169 2091.31573188 C1765.7884934 2098.93843925 1758.57782798 2106.2351367 1751.2427038 2113.45879829 C1747.659017 2117.00328442 1744.17218944 2120.55198054 1740.90701044 2124.39385688 C1738.0632887 2127.7080608 1734.99565166 2130.499941 1731.67263544 2133.32354438 C1727.22966859 2137.24380925 1723.13924003 2141.53947146 1718.98122919 2145.75713813 C1713.59492798 2151.2207177 1708.22249524 2156.60672499 1702.39333856 2161.59893501 C1698.99320013 2164.54757395 1695.74808731 2167.66255573 1692.48122919 2170.75713813 C1685.15394621 2177.69802142 1677.59292419 2184.32949487 1669.91872919 2190.88213813 C1665.49768028 2194.66170387 1661.09335919 2198.45927017 1656.70705926 2202.27911079 C1650.06208597 2208.06346805 1643.33099313 2213.7155246 1636.48122919 2219.25713813 C1634.71009202 2220.71510245 1632.93926491 2222.17344349 1631.16872919 2223.63213813 C1582.67755018 2263.25713813 1582.67755018 2263.25713813 1577.48122919 2263.25713813 C1577.57210809 2262.27886055 1577.57210809 2262.27886055 1577.66482294 2261.28081977 C1585.78771691 2169.67175876 1572.65509534 2075.88063632 1486.4782995 1924.38897407 C1472.60718112 1907.89172225 1457.66249212 1892.68354249 1440.40359247 1879.70831001 C1438.3423741 1878.15231789 1436.30122111 1876.571788 1434.25857294 1874.99151313 C1355.52269747 1814.7877488 1253.01364826 1792.99595589 1123.48122919 1769.25713813 C1122.3333996 1769.05390937 1121.18557001 1768.85068061 1120.0029577 1768.64129341 C1025.8817291 1752.00628275 931.25774093 1744.75000304 592.63436639 1803.51360786 C590.48699558 1804.25514686 588.33772663 1804.99090019 586.18777215 1805.72491157 C518.0400454 1829.01388814 451.20757243 1858.85916028 388.48122919 1894.25713813 C387.41275751 1894.85848579 386.34428583 1895.45983345 385.24343622 1896.07940376 C354.50576173 1913.41480753 324.54957263 1931.83787633 295.16872919 1951.38213813 C294.41699426 1951.88147865 293.66525934 1952.38081916 292.89074457 1952.89529121 C281.95477419 1960.16625953 271.17298987 1967.63198933 260.48122919 1975.25713813 C259.12130853 1976.22393501 259.12130853 1976.22393501 257.73391473 1977.21026313 C246.80570618 1984.99869918 236.09135354 1993.04200606 225.48122919 2001.25713813 C224.71713739 2001.84704536 223.95304559 2002.43695259 223.1657995 2003.04473579 C211.33792867 2012.17823621 199.69785017 2021.48924953 188.31594598 2031.17413032 C184.91121882 2034.06665976 181.46365496 2036.89553718 177.98122919 2039.69463813 C172.59549505 2044.07398691 167.5330612 2048.75758651 162.46169794 2053.49151313 C160.21524229 2055.58624737 157.93649491 2057.63043482 155.60622919 2059.63213813 C149.04633016 2065.29750548 142.79798672 2071.32407427 136.48122919 2077.25713813 C131.5442967 2075.67808073 127.95015829 2072.7715892 123.91872919 2069.63213813 C118.48380967 2065.41774938 112.92306266 2061.50008698 107.1826452 2057.71172798 C102.58482312 2054.67347289 98.0276727 2051.57525724 93.46560419 2048.48370063 C91.61802621 2047.23358494 89.77036854 2045.98358703 87.92263544 2044.73370063 C85.08102222 2042.81127477 82.23996058 2040.88806048 79.40066278 2038.96221626 C68.96792196 2031.88757612 58.50459674 2024.90905852 47.7751745 2018.29131782 C43.97096045 2015.94202109 40.220328 2013.52047601 36.48122919 2011.06963813 C7.65656206 1992.32800846 -21.88688313 1974.68555516 -51.51877081 1957.25713813 C-52.55517706 1956.64741157 -53.59158331 1956.03768501 -54.65939581 1955.40948188 C-68.22023554 1947.44162808 -81.85467881 1939.6129661 -95.56955206 1931.91338813 C-98.60634886 1930.20795523 -101.64073118 1928.49827714 -104.67502081 1926.78838813 C-117.83771237 1919.38167938 -131.06481731 1912.10427855 -144.36740363 1904.95196235 C-147.65650349 1903.18306467 -150.94306912 1901.40950923 -154.22970831 1899.63604438 C-168.96749926 1891.69759253 -183.78193457 1883.91820294 -198.67088568 1876.26653755 C-202.80561583 1874.14112967 -206.9356948 1872.00692269 -211.06331122 1869.86773384 C-226.17675156 1862.03591256 -241.29510745 1854.26162168 -256.69845831 1847.01104438 C-261.03343169 1844.97039077 -265.34690989 1842.8881302 -269.65158331 1840.78448188 C-286.28051725 1832.66343382 -303.01589752 1824.82750006 -319.89461005 1817.23931587 C-324.48188633 1815.17693027 -329.0638749 1813.10327533 -333.64245856 1811.0216645 C-419.92854807 1771.79787727 -508.55021123 1737.09541127 -1111.51877081 1623.25713813 C-1112.59502722 1623.24423744 -1112.59502722 1623.24423744 -1113.69302619 1623.23107612 C-1123.96972063 1623.1142721 -1134.24226467 1623.13150632 -1144.51877081 1623.25713813 C-1145.2454798 1623.2657386 -1145.97218878 1623.27433906 -1146.72091925 1623.28320014 C-1179.05089108 1623.68732479 -1211.29415797 1625.67856238 -1243.51877081 1628.25713813 C-1238.86262297 1622.80603822 -1232.89119185 1619.74390597 -1226.70627081 1616.25713813 C-1225.54094563 1615.59367925 -1224.37582844 1614.92985494 -1223.21090949 1614.26568305 C-1211.74540671 1607.74888125 -1200.16612862 1601.44251786 -1188.51877081 1595.25713813 C-1187.60659796 1594.77212837 -1186.69442511 1594.2871186 -1185.75461066 1593.78741157 C-1179.03592364 1590.22514661 -1172.2851534 1586.72783899 -1165.51877081 1583.25713813 C-1164.34910773 1582.65530708 -1163.17944464 1582.05347602 -1161.97433722 1581.43340766 C-1141.4935728 1570.91605322 -1120.6847351 1561.3170862 -1099.56833136 1552.14910591 C-1097.63909522 1551.30950326 -1095.71217172 1550.46488782 -1093.78634894 1549.6174897 C-1010.76575688 1513.10787629 -923.26640699 1485.91525214 -741.51877081 1458.25713813 C-740.36997443 1458.16625923 -740.36997443 1458.16625923 -739.19797003 1458.07354438 C-635.60357685 1450.03431577 -529.1988543 1459.180025 -229.45627081 1512.13213813 C-228.62588294 1512.34934516 -227.79549506 1512.5665522 -226.93994391 1512.79034126 C-216.86808519 1515.43887879 -206.87387423 1518.28955796 -196.92940009 1521.38454902 C-196.13461752 1521.62883644 -195.33983496 1521.87312385 -194.52096808 1522.12481391 C-193.46849638 1522.45293571 -193.46849638 1522.45293571 -192.39476264 1522.78768623 C-190.35603357 1523.37851641 -190.35603357 1523.37851641 -187.51877081 1523.25713813 C-188.08724738 1522.62807563 -188.65572394 1521.99901313 -189.24142706 1521.35088813 C-192.90922451 1517.28508262 -196.56740807 1513.21626372 -200.14377081 1509.06963813 C-202.86362794 1505.94242914 -205.72887801 1503.021924 -208.6869837 1500.12139595 C-210.4068629 1498.37102976 -211.99768043 1496.56871527 -213.58517706 1494.69854438 C-218.13952831 1489.46242567 -223.0406974 1484.58924961 -227.95627081 1479.69463813 C-228.8592591 1478.78778266 -229.76224738 1477.8809272 -230.69259894 1476.94659126 C-235.28420935 1472.36163054 -239.93437779 1467.92431085 -244.8588587 1463.69878852 C-246.84411996 1461.97456912 -248.6927615 1460.14836207 -250.51877081 1458.25713813 C-253.66857111 1455.06452502 -256.9309657 1452.08552534 -260.33127081 1449.16338813 C-262.87388481 1446.94768165 -265.3498728 1444.66615222 -267.83127081 1442.38213813 C-272.29750596 1438.30853905 -276.8879846 1434.4488611 -281.59298956 1430.65557563 C-284.24117496 1428.48470002 -286.83041534 1426.26405143 -289.41134894 1424.01470649 C-297.13483264 1417.2936648 -305.16932794 1411.06079381 -313.34543097 1404.90264595 C-315.50077208 1403.27076557 -317.64260212 1401.62273858 -319.78048956 1399.96807563 C-389.33812686 1346.17491265 -468.31626703 1306.75888241 -574.46567023 1275.81060493 C-576.4305043 1275.28093267 -578.3941023 1274.74668158 -580.357638 1274.21221626 C-663.17598144 1251.88064717 -749.7380827 1242.68122981 -835.26016486 1239.34570014 C-837.42739122 1239.26072121 -839.59441459 1239.17162482 -841.7614466 1239.08184516 C-913.91525755 1236.16092237 -986.46071956 1238.45628527 -1730.68773139 1345.63419807 C-1735.27842636 1346.93354477 -1739.88628838 1348.11853732 -1744.51877081 1349.25713813 C-1743.0918077 1344.67930849 -1740.77415118 1342.22605928 -1737.33127081 1338.94463813 C-1734.19234017 1335.93741087 -1731.21008651 1332.9417755 -1728.38839972 1329.6355561 C-1724.31379669 1324.95574503 -1719.97700437 1320.57133225 -1715.58517706 1316.19073188 C-1714.33002547 1314.9341452 -1714.33002547 1314.9341452 -1713.04951727 1313.65217292 C-1711.29008978 1311.89206878 -1709.52941428 1310.13321136 -1707.76755011 1308.37554634 C-1705.0890767 1305.70242841 -1702.41598208 1303.02401562 -1699.74338019 1300.34502876 C-1698.02429966 1298.6266091 -1696.30490892 1296.90849971 -1694.58517706 1295.19073188 C-1693.79534934 1294.39887992 -1693.00552161 1293.60702796 -1692.19175971 1292.79118049 C-1687.98515688 1288.6020799 -1683.70122179 1284.57084909 -1679.19111884 1280.70930183 C-1677.02400243 1278.82751184 -1675.01663945 1276.81647965 -1673.01877081 1274.75713813 C-1669.77280763 1271.47266352 -1666.44228133 1268.39560822 -1662.93673956 1265.39385688 C-1659.62212839 1262.46479015 -1656.42352451 1259.41732088 -1653.20627081 1256.38213813 C-1648.05416849 1251.53395909 -1642.79249746 1246.94595851 -1637.26095831 1242.53057563 C-1634.06833612 1239.88370082 -1631.04456511 1237.09127518 -1628.01877081 1234.25713813 C-1623.31611132 1229.85785384 -1618.49176844 1225.70489171 -1613.46798956 1221.67120063 C-1609.89972189 1218.75041994 -1606.42887817 1215.72792672 -1602.95627081 1212.69463813 C-1598.12416682 1208.4828515 -1593.25206841 1204.35939961 -1588.21408331 1200.39385688 C-1586.10993556 1198.72578613 -1584.0248693 1197.04126138 -1581.94845831 1195.33916938 C-1574.31137569 1189.08070053 -1566.59296683 1182.95923407 -1558.72873175 1176.9883393 C-1554.35114014 1173.66411193 -1550.0134228 1170.29697682 -1545.70627081 1166.88213813 C-1526.28371743 1151.53634195 -1506.13674956 1137.11497924 -1485.87228644 1122.90850532 C-1484.23167049 1121.75735115 -1482.59245391 1120.60420113 -1480.95431769 1119.44952095 C-1465.69926886 1108.70039218 -1450.20206625 1098.37013412 -1434.51877081 1088.25713813 C-1433.58210577 1087.65160102 -1432.64544074 1087.04606391 -1431.68039191 1086.4221772 C-1369.44918972 1046.2491635 -1304.20374505 1010.13679269 -1236.46237433 980.11987007 C-1234.58049364 979.28453582 -1232.70068531 978.44471882 -1230.82150519 977.60332954 C-1199.66679696 963.68682734 -1167.78123873 951.35479294 -1135.51877081 940.25713813 C-1134.22206041 939.80577727 -1132.92551616 939.35393885 -1131.62912238 938.90166938 C-1091.33311513 924.87208475 -1050.19439862 913.38964431 -1008.51877081 904.25713813 C-1007.69862494 904.07729377 -1006.87847907 903.89744941 -1006.03348029 903.71215522 C-941.7122257 889.68151508 -876.92000422 883.55752704 -811.26877081 880.63213813 C-810.56656031 880.60060016 -809.86434981 880.56906219 -809.1408602 880.53656852 C-798.60181215 880.06367717 -788.06158151 879.63709084 -777.51877081 879.25713813 C-776.82212569 879.23172321 -776.12548056 879.20630828 -775.40772498 879.18012321 C-746.21933118 878.12536375 -717.02861061 878.06953217 -687.8239466 878.0718354 C-682.57651523 878.07191604 -677.32917233 878.06505437 -672.0817591 878.05132759 C-621.49901345 877.92122431 -571.01151347 879.1202538 -520.51877081 882.25713813 C-522.07878035 880.84306558 -523.64027314 879.43062928 -525.20236456 878.01885688 C-526.07175665 877.23212593 -526.94114874 876.44539497 -527.83688605 875.63482368 C-531.74361173 872.17122774 -535.79358901 868.89721764 -539.85226691 865.61456001 C-541.75661193 864.06340877 -543.64800213 862.49724884 -545.53830206 860.92901313 C-553.44891744 854.36870596 -561.40617216 847.91697922 -569.60129035 841.7136811 C-571.85997501 839.99795501 -574.10927319 838.27025085 -576.35861456 836.54229438 C-587.6070206 827.91389431 -598.96306106 819.46904639 -610.51877081 811.25713813 C-611.22598273 810.75134223 -611.93319464 810.24554634 -612.66183722 809.72442329 C-652.58503329 781.20269213 -694.08697011 754.49627174 -736.98312628 730.6668061 C-739.31271516 729.37169286 -741.63733214 728.06820265 -743.96017706 726.76104438 C-779.32485355 706.9064786 -815.41382802 688.63044915 -852.51877081 672.25713813 C-854.31556281 671.4631562 -854.31556281 671.4631562 -856.14865363 670.65313423 C-935.17116768 635.90041164 -1017.87552291 609.63396064 -1193.51877081 584.25713813 C-1194.21004065 584.20199043 -1194.90131049 584.14684272 -1195.61352789 584.09002388 C-1212.43299165 582.78659348 -1229.34706874 583.01136114 -1246.20627081 583.00713813 C-1247.01468924 583.00669628 -1247.82310767 583.00625442 -1248.65602362 583.00579917 C-1276.3749878 582.99787095 -1303.90368992 583.6681073 -1331.51877081 586.25713813 C-1332.4358985 586.3419947 -1333.35302619 586.42685127 -1334.29794562 586.51427925 C-1426.92568136 595.15661835 -1517.49730956 616.51651565 -1661.96847785 672.65313423 C-1665.21888293 674.12165034 -1668.47565891 675.57501135 -1671.73361456 677.02666938 C-1700.48345782 689.96060697 -1729.04746814 703.97410788 -1756.24093878 719.93682563 C-1759.15083811 721.62350683 -1762.10055621 723.23024281 -1765.05563605 724.83599555 C-1782.68299636 734.43509277 -1799.92206575 745.01048389 -1816.63424933 756.12212837 C-1819.25536771 757.85633223 -1821.52028285 759.25764215 -1824.51877081 760.25713813 C-1822.88152575 755.03453363 -1819.64023691 751.07258424 -1816.39377081 746.75713813 C-1815.77776007 745.92980171 -1815.16174933 745.10246528 -1814.5270716 744.25005805 C-1808.52373434 736.20920169 -1802.43288704 728.2343301 -1796.33517706 720.26495063 C-1793.45901808 716.50122976 -1790.61623511 712.71477659 -1787.79245245 708.91167915 C-1782.28115301 701.49237428 -1776.5459413 694.29072756 -1770.68673956 687.14385688 C-1767.66299729 683.45001282 -1764.70663668 679.70695005 -1761.76877081 675.94463813 C-1754.90494987 667.16909417 -1747.82593781 658.58614123 -1740.60910285 650.09942329 C-1737.65896485 646.62472453 -1734.76208852 643.11256018 -1731.89377081 639.56963813 C-1728.31593866 635.17055981 -1724.57318561 630.96163436 -1720.75314581 626.77276313 C-1718.50695515 624.24383518 -1716.38345864 621.64663899 -1714.26877081 619.00713813 C-1709.608691 613.2433552 -1704.5830256 607.86950192 -1699.51486456 602.46807563 C-1697.27962348 600.08354329 -1695.09176802 597.66951753 -1692.95627081 595.19463813 C-1688.4728589 590.00448148 -1683.77592031 585.00801025 -1679.11252081 579.98028266 C-1677.53432277 578.27395273 -1675.96297961 576.56157905 -1674.39377081 574.84698188 C-1669.29727131 569.28496006 -1664.17203533 563.79971955 -1658.74923956 558.55010688 C-1656.90560456 556.65481135 -1655.19555248 554.72874184 -1653.47873175 552.7214936 C-1649.16869849 547.78324124 -1644.56762338 543.16222766 -1639.92892706 538.53448188 C-1639.0255712 537.63016929 -1638.12221533 536.7258567 -1637.19148505 535.7941407 C-1635.29081014 533.8927887 -1633.38917473 531.9924626 -1631.48581183 530.09380805 C-1629.0675869 527.68127953 -1626.65388124 525.26428732 -1624.24149668 522.84592044 C-1621.9105868 520.51049238 -1619.57583125 518.17891637 -1617.24142706 515.84698188 C-1616.385978 514.98950859 -1615.53052893 514.13203529 -1614.64915717 513.24857795 C-1610.29659754 508.9127976 -1605.88412714 504.71837865 -1601.21077216 500.72895515 C-1598.6786992 498.52638712 -1596.3635641 496.15843246 -1594.01877081 493.75713813 C-1590.35605369 490.00616277 -1586.56963678 486.52270739 -1582.60666144 483.09112251 C-1579.16296792 480.06621305 -1575.84601425 476.90892147 -1572.51877081 473.75713813 C-1565.09378758 466.72370675 -1557.42733768 460.01374157 -1549.64377081 453.38213813 C-1545.48670393 449.8331248 -1541.37301579 446.25039791 -1537.33127081 442.56963813 C-1533.17289497 438.79667273 -1528.87150698 435.24133557 -1524.50705206 431.71026313 C-1521.11127029 428.92261482 -1517.78198958 426.06509818 -1514.45627081 423.19463813 C-1509.79370965 419.17760462 -1505.08500025 415.2462947 -1500.25314581 411.43291938 C-1498.12346377 409.73830096 -1496.01221879 408.02758141 -1493.90939581 406.30010688 C-1486.61082388 400.30949685 -1479.23761638 394.46988851 -1471.65426886 388.84356391 C-1466.61175564 385.09727788 -1461.65025202 381.25726645 -1456.70627081 377.38213813 C-1447.45100637 370.14591392 -1438.0146176 363.17327988 -1428.51877081 356.25713813 C-1427.76595831 355.70670845 -1427.01314581 355.15627876 -1426.23752081 354.58916938 C-1418.13087807 348.66400168 -1409.96893292 342.83177464 -1401.67502081 337.17120063 C-1400.85932623 336.61392784 -1400.04363165 336.05665504 -1399.20321906 335.48249519 C-1390.99062476 329.88139626 -1382.73783525 324.34113841 -1374.46652472 318.82720649 C-1372.01740957 317.19373023 -1369.57079692 315.55655146 -1367.12423956 313.91924751 C-1356.68028296 306.9443435 -1346.13465851 300.15096002 -1335.48813117 293.48952949 C-1333.83223755 292.45330015 -1332.17865014 291.41338679 -1330.52560675 290.37261665 C-1294.38165618 267.62510627 -1257.0036578 246.81185297 -1219.10080206 227.15948188 C-1215.46374961 225.27320602 -1211.83636154 223.37040509 -1208.21798956 221.44854438 C-1195.48044917 214.69087358 -1182.58236826 208.35920125 -1169.51877081 202.25713813 C-1168.19079118 201.63477941 -1166.86282979 201.01238176 -1165.5348841 200.38995063 C-1076.62183001 158.77179766 -983.88170939 124.81825123 -786.51877081 76.25713813 C-785.50907233 76.04784675 -784.49937384 75.83855537 -783.45907843 75.62292182 C-688.99387992 56.10465399 -593.30516795 43.21376647 0 0 Z " fill="#7F47DD" transform="translate(1824.518770813942,-0.25713813304901123)"/>
</svg>
